 http://img638.imageshack.us/img638/2185/thethree.jpg

Verenigde Staten / Verenigd Koninkrijk / Frankrijk / Duitsland
Actie / Avontuur
110 minuten

geregisseerd door Paul W.S. Anderson
met Milla Jovovich, Logan Lerman en Matthew Macfadyen

The Three Musketeers speelt zich af in de 17e eeuw en gaat over D'Artagnan die in zijn strijd met Kardinaal Richelieu de samenwerking aangaat met de drie musketiers Athos, Porthos en Aramis. D'Artagnan kan de hulp goed gebruiken en samen met de drie musketiers probeert hij de snode plannen van Kardinaal Richelieu, om de koning tot aftreden te dwingen, te dwarsbomen.



Nl-ENG subs




Screenshots:
 
http://postimage.org/image/7gilvcp8x/ 
http://postimage.org/image/g01zt3xld/ 
http://postimage.org/image/pymyfl70x/ 
http://postimage.org/image/530o4catt/




INFO;

Format                                   : Matroska
Format version                           : Version 2
File size                                : 2.76 GiB
Duration                                 : 1h 50mn
Overall bit rate                         : 3 579 Kbps
Encoded date                             : UTC 2012-02-10 22:15:17
Writing application                      : mkvmerge v3.3.0 ('Language') built on Mar 24 2010 14:59:24
Writing library                          : libebml v0.8.0 + libmatroska v0.9.0

Video
ID                                       : 1
Format                                   : MPEG-4 Visual
Format profile                           : Advanced Simple@L5
Format settings, BVOP                    : Yes
Format settings, QPel                    : No
Format settings, GMC                     : No warppoints
Format settings, Matrix                  : Custom
Codec ID                                 : XVID
Codec ID/Hint                            : XviD
Duration                                 : 1h 50mn
Bit rate                                 : 3 060 Kbps
Width                                    : 1 280 pixels
Height                                   : 544 pixels
Display aspect ratio                     : 2.35:1
Frame rate                               : 23.976 fps
Color space                              : YUV
Chroma subsampling                       : 4:2:0
Bit depth                                : 8 bits
Scan type                                : Progressive
Compression mode                         : Lossy
Bits/(Pixel*Frame)                       : 0.183
Stream size                              : 2.36 GiB (85%)
Writing library                          : XviD 1.2.1 (UTC 2008-12-04)
Default                                  : Yes
Forced                                   : No

Audio
ID                                       : 2
Format                                   : AC-3
Format/Info                              : Audio Coding 3
Mode extension                           : CM (complete main)
Codec ID                                 : A_AC3
Duration                                 : 1h 50mn
Bit rate mode                            : Constant
Bit rate                                 : 448 Kbps
Channel(s)                               : 6 channels
Channel positions                        : Front: L C R, Side: L R, LFE
Sampling rate                            : 48.0 KHz
Bit depth                                : 16 bits
Compression mode                         : Lossy
Stream size                              : 354 MiB (13%)
Default                                  : Yes
Forced                                   : No

Text #1
ID                                       : 3
Format                                   : UTF-8
Codec ID                                 : S_TEXT/UTF8
Codec ID/Info                            : UTF-8 Plain Text
Language                                 : Dutch
Default                                  : Yes
Forced                                   : Yes

Text #2
ID                                       : 4
Format                                   : UTF-8
Codec ID                                 : S_TEXT/UTF8
Codec ID/Info                            : UTF-8 Plain Text
Language                                 : English
Default                                  : No
Forced                                   : No


 
http://www.imdb.com/title/tt1509767/ 
http://www.moviemeter.nl/film/69862



Deze film wordt u aangeboden door het DutchReleaseTeam.
Voor de reviews van de nieuwste films, muziek, series, games etc
ga dan eens naar http://www.hetmultimediacafe.be/